# xmcd
#
# Track frame offsets: 
#        150
#        10751
#        19519
#        33890
#        45825
#        61626
#        71593
#        84773
#        100258
#        110124
#        121883
#
# Disc length: 1805 seconds
#
# Revision: 0
# Processed by: cddbd v1.5.2PL0 Copyright (c) Steve Scherf et al.
# Submitted via: ExactAudioCopy v1.0b1
#
DISCID=74070b0b
DTITLE=Chris LeDoux - Songs Of Rodeo Life
DYEAR=1971
DGENRE=Country
TTITLE0=Them Bareback Horses
TTITLE1=Copenhagen
TTITLE2=Colorado
TTITLE3=Bull Rider
TTITLE4=Rodeo Life
TTITLE5=Riverboat Gambler
TTITLE6=Bareback Jack
TTITLE7=Ain't No Place For A Country Boy
TTITLE8=New Breed
TTITLE9=Hometown Cowboy
TTITLE10=Mountain Wild
EXTD=
EXTT0=
EXTT1=
EXTT2=
EXTT3=
EXTT4=
EXTT5=
EXTT6=
EXTT7=
EXTT8=
EXTT9=
EXTT10=
PLAYORDER=
